<svg xmlns="http://www.w3.org/2000/svg" viewBox="0 0 32 32" width="32" height="32"><path d="M2 13.5h28v4l-12 1.5h-4l-12-1.5z" fill="#2F7DF0" stroke="#F4F7FB" stroke-width="1.5" stroke-linejoin="round"/><path d="M10 25.5h12v2.5l-5 1h-2l-5-1z" fill="#2F7DF0" stroke="#F4F7FB" stroke-width="1.5" stroke-linejoin="round"/><path d="M16 1.5c1.8 0 2.6 2 2.6 4.5v17l-1.6 7.5h-2L13.4 23V6c0-2.5.8-4.5 2.6-4.5z" fill="#2F7DF0" stroke="#F4F7FB" stroke-width="1.5" stroke-linejoin="round"/><path d="M14.3 6c0-1.7.7-2.6 1.7-2.6s1.7.9 1.7 2.6z" fill="#DCEBFF"/><rect x="7.5" y="11.5" width="2.6" height="6" rx="1.2" fill="#174A9C"/><rect x="21.9" y="11.5" width="2.6" height="6" rx="1.2" fill="#174A9C"/></svg>