<svg xmlns="http://www.w3.org/2000/svg" viewBox="0 0 32 32" width="32" height="32"><circle cx="16" cy="14" r="13" fill="#DCEBFF" fill-opacity="0.25"/><rect x="12" y="25.5" width="8" height="2.2" rx="1.1" fill="#E5342B" stroke="#F4F7FB" stroke-width="1"/><path d="M16 4.5c3 0 4.8 2.5 4.8 6v4c0 2.5-1.5 4.2-3.3 5.2L17 29.5h-2l-.5-9.8c-1.8-1-3.3-2.7-3.3-5.2v-4c0-3.5 1.8-6 4.8-6z" fill="#E5342B" stroke="#F4F7FB" stroke-width="1.5" stroke-linejoin="round"/><path d="M12.7 10.5c0-2.7 1.3-4.2 3.3-4.2s3.3 1.5 3.3 4.2z" fill="#DCEBFF"/><path d="M6.8 4.8 25.2 23.2M25.2 4.8 6.8 23.2" fill="none" stroke="#8E1A14" stroke-width="1.6" stroke-linecap="round"/><circle cx="16" cy="14" r="2" fill="#8E1A14" stroke="#F4F7FB" stroke-width="0.75"/></svg>