<svg xmlns="http://www.w3.org/2000/svg" viewBox="0 0 24 24" width="24" height="24" fill="none" stroke="#E8EDF5" stroke-width="1.75" stroke-linecap="round" stroke-linejoin="round" color="#E8EDF5"><path d="M2 21.5h14.5"/><path d="M3 21.5V12l5.5-5 5.5 5v9.5"/><path d="M8.5 7V2.5h3.5l-1 1.2 1 1.3H8.5"/><circle cx="8.5" cy="12.8" r="1.6"/><path d="M7 21.5V18h3v3.5"/><path d="M19.3 14.5m0 -4.94c0.52 2.6 3.38 3.9 3.38 6.5a3.38 3.38 0 0 1 -6.76 0c0 -1.43 0.65 -2.47 1.43 -3.38 0.26 1.04 0.65 1.69 1.3 1.95 -0.26 -1.82 -0.65 -3.38 0.65 -5.07z"/></svg>